<?xml version="1.0" encoding="UTF-8"?>
<svg id="Layer_1" xmlns="http://www.w3.org/2000/svg" version="1.1" viewBox="0 0 442 600">
  <!-- Generator: Adobe Illustrator 29.1.0, SVG Export Plug-In . SVG Version: 2.1.0 Build 142)  -->
  <defs>
    <style>
      .st0 {
        fill: #020202;
      }

      .st1 {
        fill: #aa0202;
      }

      .st2 {
        fill: #fdfdfd;
      }
    </style>
  </defs>
  <path class="st0" d="M351.77,0c1.53,1.1,3.06,1.67,4.56,2.95,28.79,24.66,54.47,57.68,83.16,83.01l2.37,5.63.14,500.96c.09,3.48-3.7,4.63-5.06,7.45H4.06l-4.49-5.02L-1,8.45c-.11-4.42,2.57-3.04,5.43-3.44,1.37-.19.33-3.8.63-5.01h346.7ZM11.08,207c-.03,61.98-.03,124.02,0,186s-.02,130.02,0,195h418.85c.02-64.98-.03-130.02,0-195,.03-61.98.05-124.02,0-186-.03-36.65.02-73.35,0-110h-79.66c-.39,0-5.51-5.11-5.51-5.5V12H11.08c-.02,64.98.03,130.02,0,195ZM420.91,85l-64.13-64v64h64.13Z"/>
  <path class="st1" d="M429.92,207c.05,61.98.03,124.02,0,186H11.08c-.03-61.98-.03-124.02,0-186h418.85ZM173.4,265h-31.06c.34,2.01-.46,12.54,0,13.01.54.54,6.91-1.03,9.59.92,1.2.87,13.39,18.24,13.29,19.41-3.46,4.27-14.13,22.84-18.39,23.64-1.64.31-7.18-.3-7.5.02-.46.46.35,10.99,0,13.01h31.06c-.35-2.02.48-12.56,0-13.01s-5.13,1.1-4.01-1.48c.84-1.92,6.08-7.15,7.51-9.5.61,0,7.22,8.65,7.5,9.5.86,2.59-2.7.67-3.06,2.03-.77,2.93.7,9.03.07,12.46h30.06c-.34-2.01.46-12.54,0-13.01-.52-.52-6.81.83-9.02-.5-1.2-.73-15.99-21.57-16.03-22.97,1.51-2.82,12-19.61,13.22-20.32,1.7-.99,9.22.4,9.82-.2.46-.46-.35-10.99,0-13.01h-31.06c.35,2.02-.48,12.56,0,13.01s5.13-1.1,4.01,1.48c-.14.33-4.17,5.43-4.51,5.51-1.34.34-5.08-4.48-5.49-5.52-1.03-2.65,3.49-.98,4.01-1.48.47-.45-.36-10.99,0-13.01ZM240.04,265h-24.55c.32,1.9-.43,11.58,0,12,.7.69,8.09-1.72,8.02,2.49-.69,5.61,1.3,41.52-.94,43.07-1.66,1.15-6.65,0-7.08.43s.32,10.1,0,12h28.06c-.31-1.9.43-11.58,0-12.01-.35-.35-6.54.26-8.02,0v-30l6.15,14.86,12.23.18,6.67-16.05v31c-1.37.23-6.68-.34-7.02,0-.43.42.32,10.11,0,12.01h28.06c-.32-1.9.44-11.59,0-12.01-.61-.58-7.13,1.52-7.02-2.49.69-5.6-1.3-41.54.94-43.07,1.56-1.06,5.71-.07,6.09-.43.43-.42-.33-10.1,0-12.01h-25.05c-2.33,5.77-4.03,12.37-6.55,18.01-.48,1.07-.04,2.58-1.96,2-1.03-.32-6.16-19.41-8.03-20.01ZM322.71,265h-30.06c.31,1.9-.43,11.58,0,12.01.34.33,5.65-.24,7.02,0v46c-1.37.23-6.68-.34-7.02,0-.43.42.32,10.11,0,12.01h60.12v-21c-2.02.34-12.57-.46-13.03,0-.37.37.27,7.42,0,9.01h-24.05v-46c1.37-.23,6.68.34,7.02,0,.43-.42-.32-10.11,0-12.01ZM110.28,313h-22.04v22h22.04v-22Z"/>
  <polygon class="st2" points="420.91 85 356.78 85 356.78 21 420.91 85"/>
</svg>